<svg width="26" height="27" viewBox="0 0 26 27" fill="none" xmlns="http://www.w3.org/2000/svg">
<path d="M15.8662 21.9034C15.1023 22.5776 14.0989 22.9866 13 22.9866C11.901 22.9866 10.8976 22.5776 10.1337 21.9034M19.4972 14.516V11.0701C19.4972 7.47093 16.5991 4.57007 13 4.57007C9.40082 4.57007 6.46352 7.34726 6.46352 11.0701V14.4926C6.46352 15.016 6.38194 15.536 6.22192 16.0326L5.42191 18.5151C5.40001 18.5831 5.44892 18.6533 5.51819 18.6533H20.4351C20.5083 18.6533 20.5603 18.5819 20.5378 18.5122L19.7324 16.0129C19.5765 15.5292 19.4972 15.0241 19.4972 14.516Z" stroke="#171E1D" stroke-width="1.5" stroke-linecap="round"/>
<circle cx="18.8197" cy="6.82764" r="4.09534" fill="#00C29F" stroke="white" stroke-width="1.5"/>
</svg>
