<svg width="26" height="27" viewBox="0 0 26 27" fill="none" xmlns="http://www.w3.org/2000/svg">
<path d="M15.8662 21.9034C15.1024 22.5776 14.099 22.9866 13 22.9866C11.9011 22.9866 10.8977 22.5776 10.1338 21.9034M19.4972 14.516V11.0701C19.4972 7.47093 16.5992 4.57007 13 4.57007C9.40088 4.57007 6.46358 7.34726 6.46358 11.0701V14.4926C6.46358 15.016 6.382 15.536 6.22198 16.0326L5.42197 18.5151C5.40007 18.5831 5.44898 18.6533 5.51825 18.6533H20.4352C20.5084 18.6533 20.5604 18.5819 20.5379 18.5122L19.7325 16.0129C19.5766 15.5292 19.4972 15.0241 19.4972 14.516Z" stroke="#171E1D" stroke-width="1.5" stroke-linecap="round"/>
<circle cx="18.8197" cy="6.82764" r="4.09534" fill="#00C29F" stroke="white" stroke-width="1.5"/>
</svg>
