<svg width="20" height="21" viewBox="0 0 20 21" fill="none" xmlns="http://www.w3.org/2000/svg">
<path d="M1.66669 3.47304C1.66669 3.00633 1.66669 2.77298 1.75751 2.59472C1.83741 2.43792 1.96489 2.31043 2.12169 2.23054C2.29995 2.13971 2.53331 2.13971 3.00002 2.13971H7.00002C7.46673 2.13971 7.70009 2.13971 7.87835 2.23054C8.03515 2.31043 8.16263 2.43792 8.24253 2.59472C8.33335 2.77298 8.33335 3.00633 8.33335 3.47304V7.47304C8.33335 7.93975 8.33335 8.17311 8.24253 8.35137C8.16263 8.50817 8.03515 8.63565 7.87835 8.71555C7.70009 8.80638 7.46673 8.80638 7.00002 8.80638H3.00002C2.53331 8.80638 2.29995 8.80638 2.12169 8.71555C1.96489 8.63565 1.83741 8.50817 1.75751 8.35137C1.66669 8.17311 1.66669 7.93975 1.66669 7.47304V3.47304Z" stroke="white" stroke-width="1.5"/>
<path d="M1.66669 13.473C1.66669 13.0063 1.66669 12.773 1.75751 12.5947C1.83741 12.4379 1.96489 12.3104 2.12169 12.2305C2.29995 12.1397 2.53331 12.1397 3.00002 12.1397H7.00002C7.46673 12.1397 7.70009 12.1397 7.87835 12.2305C8.03515 12.3104 8.16263 12.4379 8.24253 12.5947C8.33335 12.773 8.33335 13.0063 8.33335 13.473V17.473C8.33335 17.9398 8.33335 18.1731 8.24253 18.3514C8.16263 18.5082 8.03515 18.6357 7.87835 18.7155C7.70009 18.8064 7.46673 18.8064 7.00002 18.8064H3.00002C2.53331 18.8064 2.29995 18.8064 2.12169 18.7155C1.96489 18.6357 1.83741 18.5082 1.75751 18.3514C1.66669 18.1731 1.66669 17.9398 1.66669 17.473V13.473Z" stroke="white" stroke-width="1.5"/>
<path d="M11.6667 3.47304C11.6667 3.00633 11.6667 2.77298 11.7575 2.59472C11.8374 2.43792 11.9649 2.31043 12.1217 2.23054C12.3 2.13971 12.5333 2.13971 13 2.13971H17C17.4667 2.13971 17.7001 2.13971 17.8783 2.23054C18.0351 2.31043 18.1626 2.43792 18.2425 2.59472C18.3334 2.77298 18.3334 3.00633 18.3334 3.47304V7.47304C18.3334 7.93975 18.3334 8.17311 18.2425 8.35137C18.1626 8.50817 18.0351 8.63565 17.8783 8.71555C17.7001 8.80638 17.4667 8.80638 17 8.80638H13C12.5333 8.80638 12.3 8.80638 12.1217 8.71555C11.9649 8.63565 11.8374 8.50817 11.7575 8.35137C11.6667 8.17311 11.6667 7.93975 11.6667 7.47304V3.47304Z" stroke="white" stroke-width="1.5"/>
<path d="M11.6667 13.473C11.6667 13.0063 11.6667 12.773 11.7575 12.5947C11.8374 12.4379 11.9649 12.3104 12.1217 12.2305C12.3 12.1397 12.5333 12.1397 13 12.1397H17C17.4667 12.1397 17.7001 12.1397 17.8783 12.2305C18.0351 12.3104 18.1626 12.4379 18.2425 12.5947C18.3334 12.773 18.3334 13.0063 18.3334 13.473V17.473C18.3334 17.9398 18.3334 18.1731 18.2425 18.3514C18.1626 18.5082 18.0351 18.6357 17.8783 18.7155C17.7001 18.8064 17.4667 18.8064 17 18.8064H13C12.5333 18.8064 12.3 18.8064 12.1217 18.7155C11.9649 18.6357 11.8374 18.5082 11.7575 18.3514C11.6667 18.1731 11.6667 17.9398 11.6667 17.473V13.473Z" stroke="white" stroke-width="1.5"/>
</svg>
