<svg width="21" height="21" viewBox="0 0 21 21" fill="none" xmlns="http://www.w3.org/2000/svg">
<g clip-path="url(#clip0_19_673)">
<path d="M9.65659 11.9506L8.72491 12.8823L9.6546 14.7417L10.5693 13.7761L9.65659 11.9506ZM10.2494 15.9313L11.1205 17.6735L12.0353 16.7079L11.1642 14.9658L10.2494 15.9313ZM17.3959 8.38786L16.4925 9.34146L18.2278 10.1714L19.1312 9.21778L17.3959 8.38786ZM13.6332 7.97396L15.3075 8.7747L16.2109 7.82114L14.5706 7.03661L13.6332 7.97396ZM12.2732 13.7951L13.3873 15.2807L14.2594 14.3602L13.1452 12.8746L12.2732 13.7951ZM12.3844 11.8602L11.2541 10.3531L10.3612 11.2459L11.5123 12.7807L12.3844 11.8602ZM11.9981 9.60911L13.431 10.7555L14.2937 9.84482L12.8874 8.71978L11.9981 9.60911ZM14.4105 11.5391L15.8449 12.6866L16.7076 11.7759L15.2732 10.6284L14.4105 11.5391ZM13.8709 4.4061L12.8459 5.43107L11.8803 4.46552C11.4755 4.06068 10.9949 3.73954 10.4659 3.52045C9.937 3.30135 9.37008 3.18858 8.79755 3.18858C8.22502 3.18858 7.6581 3.30135 7.12916 3.52045C6.60021 3.73954 6.1196 4.06068 5.71476 4.46552C5.7014 4.47884 5.68847 4.49243 5.67534 4.50591C5.21921 4.18457 4.68357 3.99469 4.12689 3.95701C3.57021 3.91932 3.01386 4.03527 2.51858 4.29221C2.0233 4.54914 1.60811 4.93718 1.31833 5.41398C1.02854 5.89079 0.875291 6.43803 0.875305 6.99599V16.4105H2.12531V6.99599C2.1253 6.66864 2.21476 6.34752 2.38402 6.06733C2.55328 5.78714 2.79591 5.55854 3.08567 5.40625C3.37543 5.25395 3.7013 5.18375 4.02807 5.20323C4.35484 5.22271 4.67006 5.33113 4.93968 5.51677C4.50723 6.34064 4.3492 7.28109 4.48862 8.20106C4.62804 9.12103 5.05762 9.97243 5.71476 10.6312L6.68027 11.5967L5.74589 12.5311L6.52714 13.3124L14.6521 5.18735L13.8709 4.4061ZM7.4771 10.6258L6.59863 9.74732C6.02109 9.16295 5.69828 8.37379 5.70068 7.5522C5.70309 6.73061 6.03053 5.94335 6.61147 5.36239C7.19242 4.78142 7.97966 4.45396 8.80125 4.45152C9.62285 4.44908 10.412 4.77187 10.9964 5.34939L11.8749 6.2279L7.4771 10.6258Z" fill="black"/>
</g>
<defs>
<clipPath id="clip0_19_673">
<rect width="20" height="20" fill="white" transform="translate(0.250305 0.473022)"/>
</clipPath>
</defs>
</svg>
