<svg width="21" height="21" viewBox="0 0 21 21" fill="none" xmlns="http://www.w3.org/2000/svg">
<g clip-path="url(#clip0_204_3536)">
<path d="M3.57519 8.16719H8.58186C9.02433 8.16719 9.44868 8.34296 9.76155 8.65583C10.0744 8.96871 10.2502 9.39305 10.2502 9.83552V18.1797C10.2502 18.6222 10.0744 19.0465 9.76155 19.3594C9.44868 19.6723 9.02433 19.848 8.58186 19.848H3.57519C2.65353 19.848 1.90686 19.1014 1.90686 18.1797V9.83552C1.90686 9.39305 2.08263 8.96871 2.3955 8.65583C2.70838 8.34296 3.13272 8.16719 3.57519 8.16719ZM3.57519 8.16719H8.58353V6.31052C8.58342 6.22553 8.56656 6.14139 8.5339 6.06292C8.50125 5.98445 8.45345 5.91319 8.39324 5.85321C8.33302 5.79323 8.26158 5.7457 8.18298 5.71336C8.10439 5.68101 8.02019 5.66447 7.93519 5.66469H4.22186C4.0505 5.66469 3.88614 5.73271 3.76489 5.8538C3.64364 5.97489 3.57541 6.13916 3.57519 6.31052V8.16719ZM11.9169 2.76636L11.5444 2.02052C11.4061 1.74344 11.1934 1.51035 10.93 1.34741C10.6667 1.18447 10.3632 1.09811 10.0535 1.09802H2.74103M6.07853 12.3389V15.6764M4.41019 14.008H7.74686M6.07853 1.09802V5.66469M18.5935 12.7564C18.5935 13.5308 18.2859 14.2735 17.7383 14.8211C17.1907 15.3687 16.448 15.6764 15.6735 15.6764C14.8991 15.6764 14.1564 15.3687 13.6088 14.8211C13.0612 14.2735 12.7535 13.5308 12.7535 12.7564C12.7535 10.5664 15.6702 6.91552 15.6702 6.91552C15.6702 6.91552 18.5935 10.5664 18.5935 12.7564Z" stroke="#171E1D" stroke-width="1.5" stroke-linecap="round" stroke-linejoin="round"/>
</g>
<defs>
<clipPath id="clip0_204_3536">
<rect width="20" height="20" fill="white" transform="translate(0.250244 0.473022)"/>
</clipPath>
</defs>
</svg>
