<svg width="21" height="21" viewBox="0 0 21 21" fill="none" xmlns="http://www.w3.org/2000/svg">
<g clip-path="url(#clip0_19_681)">
<path d="M3.57532 8.16719H8.58198C9.02445 8.16719 9.4488 8.34296 9.76167 8.65583C10.0745 8.96871 10.2503 9.39305 10.2503 9.83552V18.1797C10.2503 18.6222 10.0745 19.0465 9.76167 19.3594C9.4488 19.6723 9.02445 19.848 8.58198 19.848H3.57532C2.65365 19.848 1.90698 19.1014 1.90698 18.1797V9.83552C1.90698 9.39305 2.08275 8.96871 2.39563 8.65583C2.7085 8.34296 3.13285 8.16719 3.57532 8.16719ZM3.57532 8.16719H8.58365V6.31052C8.58354 6.22553 8.56668 6.14139 8.53403 6.06292C8.50137 5.98445 8.45358 5.91319 8.39336 5.85321C8.33315 5.79323 8.2617 5.7457 8.1831 5.71336C8.10451 5.68101 8.02031 5.66447 7.93532 5.66469H4.22198C4.05062 5.66469 3.88626 5.73271 3.76501 5.8538C3.64376 5.97489 3.57554 6.13916 3.57532 6.31052V8.16719ZM11.917 2.76636L11.5445 2.02052C11.4062 1.74344 11.1935 1.51035 10.9302 1.34741C10.6668 1.18447 10.3633 1.09811 10.0536 1.09802H2.74115M6.07865 12.3389V15.6764M4.41032 14.008H7.74698M6.07865 1.09802V5.66469M18.5936 12.7564C18.5936 13.5308 18.286 14.2735 17.7384 14.8211C17.1908 15.3687 16.4481 15.6764 15.6736 15.6764C14.8992 15.6764 14.1565 15.3687 13.6089 14.8211C13.0613 14.2735 12.7536 13.5308 12.7536 12.7564C12.7536 10.5664 15.6703 6.91552 15.6703 6.91552C15.6703 6.91552 18.5936 10.5664 18.5936 12.7564Z" stroke="#171E1D" stroke-width="1.5" stroke-linecap="round" stroke-linejoin="round"/>
</g>
<defs>
<clipPath id="clip0_19_681">
<rect width="20" height="20" fill="white" transform="translate(0.250305 0.473022)"/>
</clipPath>
</defs>
</svg>
