<svg width="40" height="41" viewBox="0 0 40 41" fill="none" xmlns="http://www.w3.org/2000/svg">
<g clip-path="url(#clip0_213_2378)">
<path fill-rule="evenodd" clip-rule="evenodd" d="M20 0.95636C31.0457 0.95636 40 9.91068 40 20.9564C40 32.002 31.0457 40.9564 20 40.9564C8.95432 40.9564 0 32.002 0 20.9564C0 9.91068 8.95432 0.95636 20 0.95636Z" fill="#0075FF"/>
<path d="M22.599 40.7885V25.3401H26.9542L27.5315 19.903H22.599L22.6064 17.1815C22.6064 15.7634 22.7411 15.0039 24.778 15.0039H27.501V9.56589H23.1448C17.9123 9.56589 16.0709 12.2033 16.0709 16.6393V19.9035H12.8091V25.341H16.0709V40.5694C17.3416 40.8226 18.6553 40.9564 20.0004 40.9564C20.8693 40.9564 21.7373 40.9003 22.599 40.7885Z" fill="white"/>
</g>
<defs>
<clipPath id="clip0_213_2378">
<rect width="40" height="40" fill="white" transform="translate(0 0.95636)"/>
</clipPath>
</defs>
</svg>
