<svg width="40" height="41" viewBox="0 0 40 41" fill="none" xmlns="http://www.w3.org/2000/svg">
<g clip-path="url(#clip0_1_952)">
<path d="M27.8555 1.22308C27.7716 1.12925 24.7469 1.26012 22.1148 4.11691C19.4826 6.97124 19.8876 10.2453 19.9468 10.3293C20.0061 10.4132 23.6999 10.5441 26.058 7.22309C28.416 3.9021 27.9395 1.31938 27.8555 1.22308ZM36.0382 30.1935C35.9197 29.9565 30.2975 27.1466 30.8209 21.7441C31.3444 16.3392 34.9568 14.8577 35.0135 14.6972C35.0703 14.5367 33.5395 12.7466 31.9172 11.8404C30.7262 11.2015 29.4079 10.8355 28.058 10.7688C27.7913 10.7614 26.8654 10.5342 24.9617 11.0552C23.7073 11.3984 20.8802 12.5095 20.1024 12.554C19.3222 12.5984 17.0012 11.2651 14.5049 10.912C12.9073 10.6033 11.2135 11.2354 10.0011 11.7219C8.79127 12.2058 6.49003 13.5836 4.88015 17.2453C3.27027 20.9046 4.11224 26.7021 4.71471 28.5046C5.31718 30.3046 6.25793 33.2552 7.85793 35.4083C9.28016 37.838 11.1666 39.5244 11.9542 40.0972C12.7419 40.6701 14.9641 41.0503 16.5049 40.2627C17.7444 39.5022 19.9814 39.0651 20.8654 39.0972C21.7469 39.1293 23.4851 39.4775 25.2654 40.4281C26.6753 40.9145 28.0086 40.7121 29.3444 40.1688C30.6802 39.6232 32.6135 37.554 34.8703 33.359C35.7271 31.4083 36.1173 30.354 36.0382 30.1935Z" fill="black"/>
<path d="M27.8555 1.22308C27.7716 1.12925 24.7469 1.26012 22.1148 4.11691C19.4826 6.97124 19.8876 10.2453 19.9468 10.3293C20.0061 10.4132 23.6999 10.5441 26.058 7.22309C28.416 3.9021 27.9395 1.31938 27.8555 1.22308ZM36.0382 30.1935C35.9197 29.9565 30.2975 27.1466 30.8209 21.7441C31.3444 16.3392 34.9568 14.8577 35.0135 14.6972C35.0703 14.5367 33.5395 12.7466 31.9172 11.8404C30.7262 11.2015 29.4079 10.8355 28.058 10.7688C27.7913 10.7614 26.8654 10.5342 24.9617 11.0552C23.7073 11.3984 20.8802 12.5095 20.1024 12.554C19.3222 12.5984 17.0012 11.2651 14.5049 10.912C12.9073 10.6033 11.2135 11.2354 10.0011 11.7219C8.79127 12.2058 6.49003 13.5836 4.88015 17.2453C3.27027 20.9046 4.11224 26.7021 4.71471 28.5046C5.31718 30.3046 6.25793 33.2552 7.85793 35.4083C9.28016 37.838 11.1666 39.5244 11.9542 40.0972C12.7419 40.6701 14.9641 41.0503 16.5049 40.2627C17.7444 39.5022 19.9814 39.0651 20.8654 39.0972C21.7469 39.1293 23.4851 39.4775 25.2654 40.4281C26.6753 40.9145 28.0086 40.7121 29.3444 40.1688C30.6802 39.6232 32.6135 37.554 34.8703 33.359C35.7271 31.4083 36.1173 30.354 36.0382 30.1935Z" fill="black"/>
</g>
<defs>
<clipPath id="clip0_1_952">
<rect width="40" height="40" fill="white" transform="translate(0 0.95636)"/>
</clipPath>
</defs>
</svg>
