<svg width="40" height="41" viewBox="0 0 40 41" fill="none" xmlns="http://www.w3.org/2000/svg">
<g clip-path="url(#clip0_1_945)">
<path fill-rule="evenodd" clip-rule="evenodd" d="M20 0.95636C31.0457 0.95636 40 9.91068 40 20.9564C40 32.002 31.0457 40.9564 20 40.9564C8.95432 40.9564 0 32.002 0 20.9564C0 9.91068 8.95432 0.95636 20 0.95636Z" fill="#0075FF"/>
<path d="M22.5989 40.7885V25.3402H26.9541L27.5314 19.9031H22.5989L22.6062 17.1816C22.6062 15.7634 22.741 15.0039 24.7779 15.0039H27.5009V9.56592H23.1447C17.9122 9.56592 16.0708 12.2034 16.0708 16.6394V19.9035H12.809V25.3411H16.0708V40.5695C17.3415 40.8226 18.6552 40.9564 20.0003 40.9564C20.8692 40.9564 21.7372 40.9003 22.5989 40.7885Z" fill="white"/>
</g>
<defs>
<clipPath id="clip0_1_945">
<rect width="40" height="40" fill="white" transform="translate(0 0.95636)"/>
</clipPath>
</defs>
</svg>
