<svg width="60" height="61" viewBox="0 0 60 61" fill="none" xmlns="http://www.w3.org/2000/svg">
<rect y="0.473022" width="60" height="60" rx="8" fill="#DDF4F0"/>
<path d="M30.0002 42.1755H20.3629C19.6326 42.1755 18.9322 41.8854 18.4158 41.369C17.8994 40.8526 17.6093 40.1523 17.6093 39.422V22.9008C17.6093 22.1705 17.8994 21.4701 18.4158 20.9538C18.9322 20.4374 19.6326 20.1473 20.3629 20.1473H36.8841C37.6143 20.1473 38.3147 20.4374 38.8311 20.9538C39.3475 21.4701 39.6376 22.1705 39.6376 22.9008V31.8498M34.1305 17.3937V22.9008M23.1164 17.3937V22.9008M17.6093 28.4079H39.6376M42.3911 43.5523L35.5073 36.6684M35.5073 43.5523L42.3911 36.6684" stroke="#00C29F" stroke-width="2" stroke-linecap="round" stroke-linejoin="round"/>
</svg>
