<svg width="60" height="61" viewBox="0 0 60 61" fill="none" xmlns="http://www.w3.org/2000/svg">
<rect y="0.473022" width="60" height="60" rx="8" fill="#DDF4F0"/>
<path d="M41.9998 32.3192L34.3936 42.473L29.3167 38.67" stroke="#00C29F" stroke-width="2" stroke-linecap="round" stroke-linejoin="round"/>
<path d="M26.3077 26.7807C28.6018 26.7807 30.4615 24.921 30.4615 22.6269C30.4615 20.3328 28.6018 18.473 26.3077 18.473C24.0136 18.473 22.1538 20.3328 22.1538 22.6269C22.1538 24.921 24.0136 26.7807 26.3077 26.7807Z" stroke="#00C29F" stroke-width="2" stroke-linecap="round" stroke-linejoin="round"/>
<path d="M22.6154 40.6269H18V37.8577C18.0014 36.2156 18.4895 34.6108 19.4024 33.246C20.3154 31.8811 21.6123 30.8174 23.1295 30.1893C24.6466 29.5611 26.3159 29.3966 27.9264 29.7165C29.537 30.0365 31.0166 30.8265 32.1785 31.9869" stroke="#00C29F" stroke-width="2" stroke-linecap="round" stroke-linejoin="round"/>
</svg>
