<svg width="60" height="61" viewBox="0 0 60 61" fill="none" xmlns="http://www.w3.org/2000/svg">
<rect y="0.473022" width="60" height="60" rx="8" fill="#DDF4F0"/>
<path d="M19.25 18.473C18.388 18.473 17.5614 18.8154 16.9519 19.4249C16.3424 20.0344 16 20.8611 16 21.723V37.973C16 39.1665 16.4741 40.3111 17.318 41.155C18.1619 41.9989 19.3065 42.473 20.5 42.473H25.5C26.6935 42.473 27.8381 41.9989 28.682 41.155C29.5259 40.3111 30 39.1665 30 37.973V26.473H42V41.473C42 41.7382 42.1054 41.9926 42.2929 42.1801C42.4804 42.3677 42.7348 42.473 43 42.473C43.2652 42.473 43.5196 42.3677 43.7071 42.1801C43.8946 41.9926 44 41.7382 44 41.473V21.723C44 20.8611 43.6576 20.0344 43.0481 19.4249C42.4386 18.8154 41.612 18.473 40.75 18.473H19.25ZM18 26.473H28V37.973C28 38.6361 27.7366 39.2719 27.2678 39.7408C26.7989 40.2096 26.163 40.473 25.5 40.473H20.5C19.837 40.473 19.2011 40.2096 18.7322 39.7408C18.2634 39.2719 18 38.6361 18 37.973V26.473ZM18 24.473V21.723C18 21.033 18.56 20.473 19.25 20.473H40.75C41.44 20.473 42 21.033 42 21.723V24.473H18ZM21 29.473C20.7348 29.473 20.4804 29.5784 20.2929 29.7659C20.1054 29.9535 20 30.2078 20 30.473C20 30.7382 20.1054 30.9926 20.2929 31.1801C20.4804 31.3677 20.7348 31.473 21 31.473H25C25.2652 31.473 25.5196 31.3677 25.7071 31.1801C25.8946 30.9926 26 30.7382 26 30.473C26 30.2078 25.8946 29.9535 25.7071 29.7659C25.5196 29.5784 25.2652 29.473 25 29.473H21Z" fill="#00C29F"/>
</svg>
