<svg width="36" height="37" viewBox="0 0 36 37" fill="none" xmlns="http://www.w3.org/2000/svg">
<circle cx="18" cy="18.973" r="17.5" fill="white" stroke="#E8ECF2"/>
<path fill-rule="evenodd" clip-rule="evenodd" d="M17.9945 14.099C16.3417 12.1729 13.5856 11.6547 11.5148 13.4185C9.44402 15.1822 9.15248 18.1311 10.7787 20.2171C12.1308 21.9514 16.2226 25.6093 17.5637 26.7932C17.7138 26.9257 17.7888 26.9919 17.8763 27.0179C17.9527 27.0406 18.0362 27.0406 18.1126 27.0179C18.2001 26.9919 18.2751 26.9257 18.4252 26.7932C19.7663 25.6093 23.8581 21.9514 25.2102 20.2171C26.8364 18.1311 26.5805 15.1637 24.4741 13.4185C22.3677 11.6733 19.6472 12.1729 17.9945 14.099Z" stroke="#171E1D" stroke-width="1.5" stroke-linecap="round" stroke-linejoin="round"/>
</svg>
