<svg width="21" height="21" viewBox="0 0 21 21" fill="none" xmlns="http://www.w3.org/2000/svg">
<path d="M19.3571 16.5644C18.8831 15.4417 18.1953 14.422 17.3319 13.5619C16.4712 12.6994 15.4516 12.0117 14.3294 11.5368C14.3194 11.5317 14.3093 11.5292 14.2993 11.5242C15.8646 10.3936 16.8822 8.55184 16.8822 6.47395C16.8822 3.03174 14.0932 0.242798 10.651 0.242798C7.20882 0.242798 4.41988 3.03174 4.41988 6.47395C4.41988 8.55184 5.43747 10.3936 7.00279 11.5267C6.99274 11.5317 6.98269 11.5343 6.97264 11.5393C5.84701 12.0142 4.83696 12.6951 3.97013 13.5644C3.10759 14.4251 2.41989 15.4447 1.945 16.5669C1.47848 17.6655 1.22687 18.8434 1.2038 20.0368C1.20313 20.0636 1.20783 20.0903 1.21763 20.1152C1.22743 20.1402 1.24213 20.163 1.26086 20.1822C1.2796 20.2014 1.30198 20.2166 1.3267 20.227C1.35142 20.2374 1.37798 20.2428 1.4048 20.2428H2.91234C3.02289 20.2428 3.11083 20.1549 3.11335 20.0468C3.1636 18.1071 3.94249 16.2905 5.31938 14.9137C6.744 13.489 8.63596 12.7051 10.651 12.7051C12.6661 12.7051 14.5581 13.489 15.9827 14.9137C17.3596 16.2905 18.1385 18.1071 18.1887 20.0468C18.1912 20.1574 18.2792 20.2428 18.3897 20.2428H19.8973C19.9241 20.2428 19.9506 20.2374 19.9754 20.227C20.0001 20.2166 20.0225 20.2014 20.0412 20.1822C20.0599 20.163 20.0746 20.1402 20.0844 20.1152C20.0942 20.0903 20.0989 20.0636 20.0983 20.0368C20.0731 18.8358 19.8244 17.6674 19.3571 16.5644ZM10.651 10.7956C9.49777 10.7956 8.41234 10.3458 7.59576 9.52923C6.77917 8.71265 6.32943 7.62722 6.32943 6.47395C6.32943 5.32069 6.77917 4.23526 7.59576 3.41868C8.41234 2.60209 9.49777 2.15235 10.651 2.15235C11.8043 2.15235 12.8897 2.60209 13.7063 3.41868C14.5229 4.23526 14.9726 5.32069 14.9726 6.47395C14.9726 7.62722 14.5229 8.71265 13.7063 9.52923C12.8897 10.3458 11.8043 10.7956 10.651 10.7956Z" fill="#787878"/>
</svg>
