<svg width="21" height="21" viewBox="0 0 21 21" fill="none" xmlns="http://www.w3.org/2000/svg">
<path d="M10.651 1.02161C7.91363 1.02161 5.68662 3.24861 5.68662 5.98596V8.96457H4.69375C3.59861 8.96457 2.70801 9.85517 2.70801 10.9503V18.8933C2.70801 19.9884 3.59861 20.879 4.69375 20.879H16.6082C17.7033 20.879 18.5939 19.9884 18.5939 18.8933V10.9503C18.5939 9.85517 17.7033 8.96457 16.6082 8.96457H15.6153V5.98596C15.6153 3.24861 13.3883 1.02161 10.651 1.02161ZM16.6082 10.9503L16.6102 18.8933H4.69375V10.9503H16.6082ZM7.67236 8.96457V5.98596C7.67236 4.34375 9.00876 3.00735 10.651 3.00735C12.2932 3.00735 13.6296 4.34375 13.6296 5.98596V8.96457H7.67236Z" fill="#787878"/>
</svg>
