<svg width="21" height="21" viewBox="0 0 21 21" fill="none" xmlns="http://www.w3.org/2000/svg">
<path d="M10.651 0.729065C7.91363 0.729065 5.68662 2.95607 5.68662 5.69342V8.67203H4.69375C3.59861 8.67203 2.70801 9.56263 2.70801 10.6578V18.6007C2.70801 19.6959 3.59861 20.5865 4.69375 20.5865H16.6082C17.7033 20.5865 18.5939 19.6959 18.5939 18.6007V10.6578C18.5939 9.56263 17.7033 8.67203 16.6082 8.67203H15.6153V5.69342C15.6153 2.95607 13.3883 0.729065 10.651 0.729065ZM16.6082 10.6578L16.6102 18.6007H4.69375V10.6578H16.6082ZM7.67236 8.67203V5.69342C7.67236 4.05121 9.00876 2.71481 10.651 2.71481C12.2932 2.71481 13.6296 4.05121 13.6296 5.69342V8.67203H7.67236Z" fill="#787878"/>
</svg>
