<svg width="19" height="20" viewBox="0 0 19 20" fill="none" xmlns="http://www.w3.org/2000/svg">
<g clip-path="url(#clip0_1_80)">
<path d="M16.4339 18.6747C16.922 19.1628 17.7135 19.1628 18.2017 18.6747C18.6898 18.1865 18.6898 17.3951 18.2017 16.9069L16.4339 18.6747ZM13.3086 8.59339C13.3086 11.4587 10.9857 13.7816 8.12037 13.7816V16.2816C12.3664 16.2816 15.8086 12.8395 15.8086 8.59339H13.3086ZM8.12037 13.7816C5.25502 13.7816 2.93219 11.4587 2.93219 8.59339H0.43219C0.43219 12.8395 3.87431 16.2816 8.12037 16.2816V13.7816ZM2.93219 8.59339C2.93219 5.72804 5.25502 3.40521 8.12037 3.40521V0.905212C3.87431 0.905212 0.43219 4.34733 0.43219 8.59339H2.93219ZM8.12037 3.40521C10.9857 3.40521 13.3086 5.72804 13.3086 8.59339H15.8086C15.8086 4.34733 12.3664 0.905212 8.12037 0.905212V3.40521ZM11.8352 14.076L16.4339 18.6747L18.2017 16.9069L13.603 12.3082L11.8352 14.076Z" fill="white"/>
</g>
<defs>
<clipPath id="clip0_1_80">
<rect width="19" height="19" fill="white" transform="translate(0 0.473022)"/>
</clipPath>
</defs>
</svg>
