<svg width="20" height="21" viewBox="0 0 20 21" fill="none" xmlns="http://www.w3.org/2000/svg">
<path d="M13.541 12.3597C12.5686 11.4953 11.3127 11.0178 10.0115 11.0178C8.71039 11.0178 7.4545 11.4953 6.48203 12.3597C6.39986 12.4308 6.33263 12.5176 6.28426 12.6149C6.23588 12.7122 6.20732 12.8181 6.20023 12.9266C6.19315 13.035 6.20767 13.1437 6.24297 13.2465C6.27827 13.3493 6.33363 13.444 6.40585 13.5252C6.47807 13.6064 6.5657 13.6725 6.66365 13.7195C6.76161 13.7666 6.86793 13.7937 6.97645 13.7993C7.08497 13.8049 7.19353 13.7889 7.29581 13.7522C7.39809 13.7155 7.49206 13.6588 7.57227 13.5855C8.24438 12.9882 9.11233 12.6582 10.0115 12.6582C10.9107 12.6582 11.7787 12.9882 12.4508 13.5855C12.6134 13.7301 12.8269 13.8041 13.0441 13.7914C13.2613 13.7786 13.4646 13.68 13.6092 13.5174C13.7538 13.3547 13.8278 13.1413 13.815 12.924C13.8022 12.7068 13.7037 12.5035 13.541 12.359V12.3597Z" fill="#171E1D"/>
<path d="M10.011 7.6488C7.80852 7.64577 5.68783 8.48286 4.08127 9.98943C3.99993 10.0623 3.93396 10.1507 3.88722 10.2494C3.84048 10.3481 3.81392 10.4551 3.80909 10.5642C3.80426 10.6733 3.82127 10.7822 3.8591 10.8847C3.89694 10.9871 3.95485 11.081 4.02944 11.1607C4.10403 11.2405 4.19379 11.3046 4.29346 11.3492C4.39314 11.3938 4.50072 11.4181 4.60989 11.4205C4.71907 11.423 4.82764 11.4037 4.92924 11.3637C5.03085 11.3237 5.12344 11.2638 5.20159 11.1875C6.50607 9.96789 8.22517 9.28944 10.011 9.28944C11.7968 9.28944 13.5159 9.96789 14.8203 11.1875C14.8985 11.2638 14.9911 11.3237 15.0927 11.3637C15.1943 11.4037 15.3029 11.423 15.412 11.4205C15.5212 11.4181 15.6288 11.3938 15.7285 11.3492C15.8281 11.3046 15.9179 11.2405 15.9925 11.1607C16.0671 11.081 16.125 10.9871 16.1628 10.8847C16.2007 10.7822 16.2177 10.6733 16.2128 10.5642C16.208 10.4551 16.1814 10.3481 16.1347 10.2494C16.088 10.1507 16.022 10.0623 15.9406 9.98943C14.3341 8.48286 12.2134 7.64577 10.011 7.6488Z" fill="#171E1D"/>
<path d="M18.0469 7.34256C15.8353 5.36926 12.9749 4.27869 10.011 4.27869C7.04699 4.27869 4.18663 5.36926 1.97502 7.34256C1.8919 7.41356 1.82381 7.50045 1.77475 7.59814C1.72569 7.69583 1.69665 7.80234 1.68934 7.91141C1.68202 8.02048 1.69659 8.12991 1.73216 8.23327C1.76774 8.33664 1.82362 8.43185 1.89652 8.51331C1.96941 8.59477 2.05786 8.66084 2.15665 8.70764C2.25544 8.75443 2.36259 8.78101 2.4718 8.78581C2.58101 8.79061 2.69008 8.77353 2.79259 8.73558C2.89511 8.69763 2.98901 8.63957 3.06877 8.56482C4.97956 6.86067 7.45044 5.91891 10.0108 5.91891C12.5711 5.91891 15.042 6.86067 16.9528 8.56482C17.1149 8.70986 17.3281 8.78453 17.5453 8.77241C17.7626 8.76029 17.9661 8.66236 18.1111 8.50017C18.2562 8.33799 18.3309 8.12483 18.3187 7.90758C18.3066 7.69034 18.2087 7.48681 18.0465 7.34177L18.0469 7.34256Z" fill="#171E1D"/>
<path d="M10.0109 17.0906C10.7013 17.0906 11.2609 16.531 11.2609 15.8406C11.2609 15.1502 10.7013 14.5906 10.0109 14.5906C9.32057 14.5906 8.76093 15.1502 8.76093 15.8406C8.76093 16.531 9.32057 17.0906 10.0109 17.0906Z" fill="#171E1D"/>
</svg>
