<svg width="20" height="21" viewBox="0 0 20 21" fill="none" xmlns="http://www.w3.org/2000/svg">
<path d="M13.541 12.3597C12.5686 11.4953 11.3127 11.0178 10.0115 11.0178C8.71039 11.0178 7.4545 11.4953 6.48203 12.3597C6.39986 12.4308 6.33263 12.5176 6.28426 12.6149C6.23588 12.7122 6.20732 12.8181 6.20023 12.9266C6.19315 13.035 6.20767 13.1437 6.24297 13.2465C6.27827 13.3493 6.33363 13.444 6.40585 13.5252C6.47807 13.6064 6.5657 13.6725 6.66365 13.7195C6.76161 13.7666 6.86793 13.7937 6.97645 13.7993C7.08497 13.8049 7.19353 13.7889 7.29581 13.7522C7.39809 13.7155 7.49206 13.6588 7.57227 13.5855C8.24438 12.9882 9.11233 12.6582 10.0115 12.6582C10.9107 12.6582 11.7787 12.9882 12.4508 13.5855C12.6134 13.7301 12.8269 13.8041 13.0441 13.7914C13.2613 13.7786 13.4646 13.68 13.6092 13.5174C13.7538 13.3547 13.8278 13.1413 13.815 12.924C13.8022 12.7068 13.7037 12.5035 13.541 12.359V12.3597Z" fill="#171E1D"/>
<path d="M10.0109 7.6488C7.80846 7.64577 5.68777 8.48286 4.08121 9.98943C3.99987 10.0623 3.9339 10.1507 3.88716 10.2494C3.84042 10.3481 3.81386 10.4551 3.80903 10.5642C3.8042 10.6733 3.82121 10.7822 3.85904 10.8847C3.89688 10.9871 3.95479 11.081 4.02938 11.1607C4.10397 11.2405 4.19373 11.3046 4.2934 11.3492C4.39308 11.3938 4.50065 11.4181 4.60983 11.4205C4.719 11.423 4.82758 11.4037 4.92918 11.3637C5.03079 11.3237 5.12338 11.2638 5.20153 11.1875C6.50601 9.96789 8.22511 9.28944 10.0109 9.28944C11.7967 9.28944 13.5158 9.96789 14.8203 11.1875C14.8984 11.2638 14.991 11.3237 15.0926 11.3637C15.1942 11.4037 15.3028 11.423 15.412 11.4205C15.5211 11.4181 15.6287 11.3938 15.7284 11.3492C15.8281 11.3046 15.9178 11.2405 15.9924 11.1607C16.067 11.081 16.1249 10.9871 16.1628 10.8847C16.2006 10.7822 16.2176 10.6733 16.2128 10.5642C16.2079 10.4551 16.1814 10.3481 16.1346 10.2494C16.0879 10.1507 16.0219 10.0623 15.9406 9.98943C14.334 8.48286 12.2133 7.64577 10.0109 7.6488Z" fill="#171E1D"/>
<path d="M18.0469 7.34255C15.8353 5.36926 12.9749 4.27869 10.011 4.27869C7.04699 4.27869 4.18663 5.36926 1.97502 7.34255C1.8919 7.41355 1.82381 7.50045 1.77475 7.59814C1.72569 7.69583 1.69665 7.80234 1.68934 7.91141C1.68202 8.02048 1.69659 8.12991 1.73216 8.23327C1.76774 8.33663 1.82362 8.43184 1.89652 8.51331C1.96941 8.59477 2.05786 8.66084 2.15665 8.70763C2.25544 8.75443 2.36259 8.78101 2.4718 8.78581C2.58101 8.79061 2.69008 8.77353 2.79259 8.73558C2.89511 8.69763 2.98901 8.63957 3.06877 8.56482C4.97956 6.86067 7.45044 5.9189 10.0108 5.9189C12.5711 5.9189 15.042 6.86067 16.9528 8.56482C17.1149 8.70986 17.3281 8.78453 17.5453 8.77241C17.7626 8.76028 17.9661 8.66236 18.1111 8.50017C18.2562 8.33798 18.3309 8.12482 18.3187 7.90758C18.3066 7.69034 18.2087 7.48681 18.0465 7.34177L18.0469 7.34255Z" fill="#171E1D"/>
<path d="M10.011 17.0906C10.7013 17.0906 11.261 16.531 11.261 15.8406C11.261 15.1502 10.7013 14.5906 10.011 14.5906C9.32063 14.5906 8.76099 15.1502 8.76099 15.8406C8.76099 16.531 9.32063 17.0906 10.011 17.0906Z" fill="#171E1D"/>
</svg>
