<svg width="20" height="21" viewBox="0 0 20 21" fill="none" xmlns="http://www.w3.org/2000/svg">
<path d="M7.5 7.13967V11.3063M12.5 9.63967V13.8063M3.86682 16.8339L6.43303 14.6954C7.0511 14.1803 7.9489 14.1803 8.56697 14.6954L11.433 17.0838C12.0511 17.5988 12.9489 17.5988 13.567 17.0838L16.9003 14.306C17.2803 13.9893 17.5 13.5203 17.5 13.0256V4.75212C17.5 4.04559 16.676 3.65963 16.1332 4.11194L13.567 6.25045C12.9489 6.76551 12.0511 6.76551 11.433 6.25044L8.56697 3.86207C7.9489 3.347 7.0511 3.347 6.43303 3.86207L3.09969 6.63985C2.7197 6.9565 2.5 7.42558 2.5 7.92021V16.1937C2.5 16.9003 3.32405 17.2862 3.86682 16.8339Z" stroke="#171E1D" stroke-width="1.5" stroke-linecap="round"/>
</svg>
