<svg width="21" height="21" viewBox="0 0 21 21" fill="none" xmlns="http://www.w3.org/2000/svg">
<path d="M3.58365 11.973C3.58365 11.0702 3.78504 10.1777 4.18782 9.29552C4.59059 8.4133 5.09754 7.56969 5.70865 6.76469C6.31976 5.95913 6.98309 5.20219 7.69865 4.49386C8.4142 3.78552 9.07726 3.16052 9.68782 2.61886C9.77115 2.54941 9.86143 2.49747 9.95865 2.46302C10.0559 2.42858 10.1531 2.41108 10.2503 2.41052C10.3614 2.41052 10.462 2.42802 10.552 2.46302C10.642 2.49802 10.722 2.54997 10.792 2.61886C11.8753 3.57719 12.9553 4.64663 14.032 5.82719C15.1086 7.00775 15.9106 8.28552 16.4378 9.66052H14.6253C14.2364 8.86886 13.6809 8.03191 12.9586 7.14969C12.2364 6.26747 11.3336 5.33358 10.2503 4.34802C8.59754 5.86191 7.35115 7.25775 6.51115 8.53552C5.67115 9.8133 5.25087 10.9591 5.25032 11.973C5.25032 13.4591 5.72254 14.6919 6.66698 15.6714C7.61143 16.6508 8.80587 17.1402 10.2503 17.1397V18.8064C8.34754 18.8064 6.76059 18.1536 5.48948 16.848C4.21837 15.5425 3.58309 13.9175 3.58365 11.973ZM13.1461 18.9522C12.9934 19.0216 12.837 19.0252 12.677 18.963C12.517 18.9008 12.4025 18.793 12.3336 18.6397L12.2295 18.4105C12.1184 18.1744 12.0384 17.928 11.9895 17.6714C11.9406 17.4147 11.9164 17.1541 11.917 16.8897C11.917 16.5841 11.9517 16.2822 12.0211 15.9839C12.0906 15.6855 12.1948 15.3972 12.3336 15.1189C12.4448 14.8827 12.542 14.6433 12.6253 14.4005C12.7086 14.1577 12.7503 13.9041 12.7503 13.6397C12.7503 13.4314 12.7259 13.23 12.677 13.0355C12.6281 12.8411 12.5623 12.6466 12.4795 12.4522L12.4586 12.4105C12.3892 12.2577 12.3856 12.098 12.4478 11.9314C12.51 11.7647 12.6178 11.6466 12.7711 11.5772C12.9239 11.5077 13.08 11.5044 13.2395 11.5672C13.3989 11.63 13.5136 11.7375 13.5836 11.8897L13.6878 12.0772C13.7989 12.3133 13.8789 12.5633 13.9278 12.8272C13.9767 13.0911 14.0009 13.3619 14.0003 13.6397C14.0003 13.9452 13.9656 14.2439 13.8961 14.5355C13.8267 14.8272 13.7225 15.1119 13.5836 15.3897C13.4725 15.6258 13.3753 15.8689 13.292 16.1189C13.2086 16.3689 13.167 16.6258 13.167 16.8897C13.167 17.0841 13.1878 17.2752 13.2295 17.463C13.2711 17.6508 13.3336 17.8347 13.417 18.0147L13.4586 18.1189C13.5281 18.2716 13.5317 18.4314 13.4695 18.598C13.4073 18.7647 13.2995 18.8827 13.1461 18.9522ZM15.6461 18.9522C15.4934 19.0216 15.337 19.0252 15.177 18.963C15.017 18.9008 14.9025 18.793 14.8336 18.6397L14.7295 18.4105C14.6184 18.1744 14.5384 17.928 14.4895 17.6714C14.4406 17.4147 14.4164 17.1541 14.417 16.8897C14.417 16.5841 14.4517 16.2822 14.5211 15.9839C14.5906 15.6855 14.6948 15.3972 14.8336 15.1189C14.9448 14.8827 15.042 14.6433 15.1253 14.4005C15.2086 14.1577 15.2503 13.9041 15.2503 13.6397C15.2503 13.4314 15.2259 13.23 15.177 13.0355C15.1281 12.8411 15.0623 12.6466 14.9795 12.4522L14.9586 12.4105C14.8892 12.2577 14.8859 12.098 14.9486 11.9314C15.0114 11.7647 15.1189 11.6466 15.2711 11.5772C15.4239 11.5077 15.5803 11.5044 15.7403 11.5672C15.9003 11.63 16.0148 11.7375 16.0836 11.8897L16.1878 12.0772C16.2989 12.3272 16.3789 12.5808 16.4278 12.838C16.4767 13.0952 16.5009 13.3625 16.5003 13.6397C16.5003 13.9452 16.4656 14.2439 16.3961 14.5355C16.3267 14.8272 16.2225 15.1119 16.0836 15.3897C15.9725 15.6258 15.8753 15.8689 15.792 16.1189C15.7086 16.3689 15.667 16.6258 15.667 16.8897C15.667 17.0841 15.6878 17.2752 15.7295 17.463C15.7711 17.6508 15.8336 17.8347 15.917 18.0147L15.9586 18.1189C16.0281 18.2716 16.0317 18.4314 15.9695 18.598C15.9073 18.7647 15.7995 18.8827 15.6461 18.9522ZM17.7711 11.5772C17.9239 11.5077 18.0803 11.5044 18.2403 11.5672C18.4003 11.63 18.5148 11.7375 18.5836 11.8897L18.6878 12.0772C18.7989 12.3133 18.8789 12.5633 18.9278 12.8272C18.9767 13.0911 19.0009 13.3619 19.0003 13.6397C19.0003 13.9452 18.9656 14.2475 18.8961 14.5464C18.8267 14.8452 18.7225 15.133 18.5836 15.4097C18.4725 15.6458 18.3753 15.8855 18.292 16.1289C18.2086 16.3722 18.167 16.6255 18.167 16.8889C18.167 17.0833 18.1878 17.2744 18.2295 17.4622C18.2711 17.65 18.3336 17.8339 18.417 18.0139L18.4586 18.118C18.5003 18.2014 18.5211 18.2847 18.5211 18.368C18.5211 18.4514 18.5073 18.5277 18.4795 18.5972C18.4517 18.6666 18.41 18.7327 18.3545 18.7955C18.2989 18.8583 18.2295 18.9102 18.1461 18.9514C17.9934 19.0208 17.837 19.0244 17.677 18.9622C17.517 18.9 17.4025 18.7925 17.3336 18.6397L17.2295 18.4105C17.1184 18.1744 17.0384 17.928 16.9895 17.6714C16.9406 17.4147 16.9164 17.1541 16.917 16.8897C16.917 16.5841 16.9517 16.2822 17.0211 15.9839C17.0906 15.6855 17.1948 15.3972 17.3336 15.1189C17.4448 14.8827 17.542 14.6433 17.6253 14.4005C17.7086 14.1577 17.7503 13.9041 17.7503 13.6397C17.7503 13.4314 17.7259 13.23 17.677 13.0355C17.6281 12.8411 17.5623 12.6466 17.4795 12.4522L17.4586 12.4105C17.3892 12.2577 17.3859 12.098 17.4486 11.9314C17.5114 11.7647 17.6189 11.6466 17.7711 11.5772Z" fill="#171E1D"/>
</svg>
