<svg width="21" height="21" viewBox="0 0 21 21" fill="none" xmlns="http://www.w3.org/2000/svg">
<path d="M5.50061 18.8064C5.04228 18.8064 4.64978 18.643 4.32311 18.3164C3.99644 17.9897 3.83339 17.5975 3.83394 17.1397V3.80635C3.83394 3.34802 3.99728 2.95552 4.32394 2.62885C4.65061 2.30219 5.04283 2.13913 5.50061 2.13969H17.1673V3.80635H15.5006V5.47302C15.5006 5.70913 15.4206 5.90719 15.2606 6.06719C15.1006 6.22719 14.9028 6.30691 14.6673 6.30635H8.00061C7.7645 6.30635 7.56644 6.22635 7.40644 6.06635C7.24644 5.90635 7.16672 5.70858 7.16728 5.47302V3.80635H5.50061V17.1397H8.87561C8.34783 16.7647 7.93117 16.2889 7.62561 15.7122C7.32006 15.1355 7.16728 14.5002 7.16728 13.8064V9.63969H15.5006V13.8064C15.5006 14.5008 15.3478 15.1364 15.0423 15.713C14.7367 16.2897 14.3201 16.7652 13.7923 17.1397H17.1673V18.8064H5.50061ZM11.3339 16.3064C12.0284 16.3064 12.6187 16.0633 13.1048 15.5772C13.5909 15.0911 13.8339 14.5008 13.8339 13.8064V11.3064H8.83394V13.8064C8.83394 14.5008 9.077 15.0911 9.56311 15.5772C10.0492 16.0633 10.6395 16.3064 11.3339 16.3064ZM11.3339 8.80635C11.5701 8.80635 11.7681 8.72635 11.9281 8.56635C12.0881 8.40635 12.1678 8.20858 12.1673 7.97302C12.1673 7.73691 12.0873 7.53885 11.9273 7.37885C11.7673 7.21885 11.5695 7.13913 11.3339 7.13969C11.0978 7.13969 10.8998 7.21969 10.7398 7.37969C10.5798 7.53969 10.5001 7.73747 10.5006 7.97302C10.5006 8.20913 10.5806 8.40719 10.7406 8.56719C10.9006 8.72719 11.0984 8.80691 11.3339 8.80635Z" fill="#171E1D"/>
</svg>
