<svg width="20" height="21" viewBox="0 0 20 21" fill="none" xmlns="http://www.w3.org/2000/svg">
<path d="M11.7291 17.348C11.5763 17.5286 11.3855 17.6294 11.1566 17.6505C10.9277 17.6716 10.7227 17.6055 10.5416 17.4522L7.35413 14.7855C6.65968 14.2022 6.15968 13.4939 5.85413 12.6605C5.54857 11.8272 5.47218 10.973 5.62496 10.098L4.45829 9.11886C4.29163 8.96608 4.19801 8.78191 4.17746 8.56636C4.1569 8.3508 4.21551 8.15302 4.35329 7.97302H3.33329V9.63969C3.33329 10.098 3.16996 10.4905 2.84329 10.8172C2.51663 11.1439 2.1244 11.3069 1.66663 11.3064V2.97302C2.12496 2.97302 2.51746 3.13636 2.84413 3.46302C3.17079 3.78969 3.33385 4.18191 3.33329 4.63969V6.30636H5.72913L7.02079 4.74386C7.17357 4.5633 7.36468 4.46247 7.59413 4.44136C7.82357 4.42024 8.02829 4.48636 8.20829 4.63969L9.35413 5.59802C10.2013 5.27858 11.0625 5.19524 11.9375 5.34802C12.8125 5.5008 13.5972 5.86886 14.2916 6.45219L17.4791 9.11886C17.6597 9.27163 17.7605 9.46274 17.7816 9.69219C17.8027 9.92163 17.7366 10.1194 17.5833 10.2855L11.7291 17.348ZM10.9791 15.6189L15.7916 9.84802L13.2083 7.72302C12.625 7.2508 11.9619 7.02163 11.2191 7.03552C10.4763 7.04941 9.75051 7.20219 9.04163 7.49386L7.77079 6.45219L6.16663 8.36886L7.41663 9.41052C7.24996 10.1605 7.22913 10.9072 7.35413 11.6505C7.47913 12.3939 7.83329 13.0083 8.41663 13.4939L10.9791 15.6189Z" fill="#171E1D"/>
</svg>
