<svg width="20" height="21" viewBox="0 0 20 21" fill="none" xmlns="http://www.w3.org/2000/svg">
<path d="M11.7292 17.348C11.5764 17.5286 11.3856 17.6294 11.1567 17.6505C10.9278 17.6716 10.7228 17.6055 10.5417 17.4522L7.35419 14.7855C6.65974 14.2022 6.15974 13.4939 5.85419 12.6605C5.54863 11.8272 5.47224 10.973 5.62502 10.098L4.45835 9.11886C4.29169 8.96608 4.19808 8.78191 4.17752 8.56636C4.15696 8.3508 4.21558 8.15302 4.35335 7.97302H3.33335V9.63969C3.33335 10.098 3.17002 10.4905 2.84335 10.8172C2.51669 11.1439 2.12446 11.3069 1.66669 11.3064V2.97302C2.12502 2.97302 2.51752 3.13636 2.84419 3.46302C3.17085 3.78969 3.33391 4.18191 3.33335 4.63969V6.30636H5.72919L7.02085 4.74386C7.17363 4.5633 7.36474 4.46247 7.59419 4.44136C7.82363 4.42024 8.02835 4.48636 8.20835 4.63969L9.35419 5.59802C10.2014 5.27858 11.0625 5.19524 11.9375 5.34802C12.8125 5.5008 13.5972 5.86886 14.2917 6.45219L17.4792 9.11886C17.6597 9.27163 17.7606 9.46274 17.7817 9.69219C17.8028 9.92163 17.7367 10.1194 17.5834 10.2855L11.7292 17.348ZM10.9792 15.6189L15.7917 9.84802L13.2084 7.72302C12.625 7.2508 11.962 7.02163 11.2192 7.03552C10.4764 7.04941 9.75058 7.20219 9.04169 7.49386L7.77085 6.45219L6.16669 8.36886L7.41669 9.41052C7.25002 10.1605 7.22919 10.9072 7.35419 11.6505C7.47919 12.3939 7.83335 13.0083 8.41669 13.4939L10.9792 15.6189Z" fill="#171E1D"/>
</svg>
