<svg width="20" height="22" viewBox="0 0 20 22" fill="none" xmlns="http://www.w3.org/2000/svg">
<path d="M16.6667 10.973H18.3334V12.723H16.6667C15.5167 12.723 14.3834 12.4168 13.3334 11.848C11.25 12.9855 8.75002 12.9855 6.66669 11.848C5.61669 12.4168 4.47502 12.723 3.33335 12.723H1.66669V10.973H3.33335C4.49169 10.973 5.65002 10.5618 6.66669 9.80927C8.70002 11.3055 11.3 11.3055 13.3334 9.80927C14.35 10.5618 15.5084 10.973 16.6667 10.973ZM16.6667 5.72302H18.3334V7.47302H16.6667C15.5167 7.47302 14.3834 7.16677 13.3334 6.59802C11.25 7.73552 8.75002 7.73552 6.66669 6.59802C5.61669 7.16677 4.47502 7.47302 3.33335 7.47302H1.66669V5.72302H3.33335C4.49169 5.72302 5.65002 5.31177 6.66669 4.55927C8.70002 6.05552 11.3 6.05552 13.3334 4.55927C14.35 5.31177 15.5084 5.72302 16.6667 5.72302ZM16.6667 16.223H18.3334V17.973H16.6667C15.5167 17.973 14.3834 17.6668 13.3334 17.098C11.25 18.2355 8.75002 18.2355 6.66669 17.098C5.61669 17.6668 4.47502 17.973 3.33335 17.973H1.66669V16.223H3.33335C4.49169 16.223 5.65002 15.8118 6.66669 15.0593C8.70002 16.5555 11.3 16.5555 13.3334 15.0593C14.35 15.8118 15.5084 16.223 16.6667 16.223Z" fill="#171E1D"/>
</svg>
