<svg width="20" height="22" viewBox="0 0 20 22" fill="none" xmlns="http://www.w3.org/2000/svg">
<path d="M16.6666 10.973H18.3333V12.723H16.6666C15.5166 12.723 14.3833 12.4168 13.3333 11.848C11.25 12.9855 8.74996 12.9855 6.66663 11.848C5.61663 12.4168 4.47496 12.723 3.33329 12.723H1.66663V10.973H3.33329C4.49163 10.973 5.64996 10.5618 6.66663 9.80927C8.69996 11.3055 11.3 11.3055 13.3333 9.80927C14.35 10.5618 15.5083 10.973 16.6666 10.973ZM16.6666 5.72302H18.3333V7.47302H16.6666C15.5166 7.47302 14.3833 7.16677 13.3333 6.59802C11.25 7.73552 8.74996 7.73552 6.66663 6.59802C5.61663 7.16677 4.47496 7.47302 3.33329 7.47302H1.66663V5.72302H3.33329C4.49163 5.72302 5.64996 5.31177 6.66663 4.55927C8.69996 6.05552 11.3 6.05552 13.3333 4.55927C14.35 5.31177 15.5083 5.72302 16.6666 5.72302ZM16.6666 16.223H18.3333V17.973H16.6666C15.5166 17.973 14.3833 17.6668 13.3333 17.098C11.25 18.2355 8.74996 18.2355 6.66663 17.098C5.61663 17.6668 4.47496 17.973 3.33329 17.973H1.66663V16.223H3.33329C4.49163 16.223 5.64996 15.8118 6.66663 15.0593C8.69996 16.5555 11.3 16.5555 13.3333 15.0593C14.35 15.8118 15.5083 16.223 16.6666 16.223Z" fill="#171E1D"/>
</svg>
