<svg width="21" height="21" viewBox="0 0 21 21" fill="none" xmlns="http://www.w3.org/2000/svg">
<path d="M5.50061 12.1397H7.16728L9.66728 14.6397H8.00061L5.50061 12.1397ZM3.83394 3.80635H4.66728V2.97302C4.66728 2.75201 4.75507 2.54004 4.91135 2.38376C5.06763 2.22748 5.2796 2.13969 5.50061 2.13969H8.83394C9.05496 2.13969 9.26692 2.22748 9.4232 2.38376C9.57948 2.54004 9.66728 2.75201 9.66728 2.97302V3.80635H11.3339V2.97302C11.3339 2.75201 11.4217 2.54004 11.578 2.38376C11.7343 2.22748 11.9463 2.13969 12.1673 2.13969H15.5006C15.7216 2.13969 15.9336 2.22748 16.0899 2.38376C16.2461 2.54004 16.3339 2.75201 16.3339 2.97302V3.80635H17.1673C17.6093 3.80635 18.0332 3.98195 18.3458 4.29451C18.6583 4.60707 18.8339 5.03099 18.8339 5.47302V16.3064C18.8339 16.7484 18.6583 17.1723 18.3458 17.4849C18.0332 17.7974 17.6093 17.973 17.1673 17.973V18.8064H14.6673V17.973H6.33394V18.8064H3.83394V17.973C3.39192 17.973 2.96799 17.7974 2.65543 17.4849C2.34287 17.1723 2.16728 16.7484 2.16728 16.3064V5.47302C2.16728 5.03099 2.34287 4.60707 2.65543 4.29451C2.96799 3.98195 3.39192 3.80635 3.83394 3.80635ZM15.5006 6.30635C15.7216 6.30635 15.9336 6.39415 16.0899 6.55043C16.2461 6.70671 16.3339 6.91867 16.3339 7.13969C16.3339 7.3607 16.2461 7.57266 16.0899 7.72894C15.9336 7.88522 15.7216 7.97302 15.5006 7.97302C15.2796 7.97302 15.0676 7.88522 14.9114 7.72894C14.7551 7.57266 14.6673 7.3607 14.6673 7.13969C14.6673 6.91867 14.7551 6.70671 14.9114 6.55043C15.0676 6.39415 15.2796 6.30635 15.5006 6.30635ZM12.1673 6.30635C12.3883 6.30635 12.6003 6.39415 12.7565 6.55043C12.9128 6.70671 13.0006 6.91867 13.0006 7.13969C13.0006 7.3607 12.9128 7.57266 12.7565 7.72894C12.6003 7.88522 12.3883 7.97302 12.1673 7.97302C11.9463 7.97302 11.7343 7.88522 11.578 7.72894C11.4217 7.57266 11.3339 7.3607 11.3339 7.13969C11.3339 6.91867 11.4217 6.70671 11.578 6.55043C11.7343 6.39415 11.9463 6.30635 12.1673 6.30635ZM17.1673 5.47302H3.83394V8.80635H17.1673V5.47302ZM3.83394 16.3064H17.1673V10.473H3.83394V16.3064ZM5.50061 6.30635C5.72162 6.30635 5.93358 6.39415 6.08987 6.55043C6.24615 6.70671 6.33394 6.91867 6.33394 7.13969C6.33394 7.3607 6.24615 7.57266 6.08987 7.72894C5.93358 7.88522 5.72162 7.97302 5.50061 7.97302C5.2796 7.97302 5.06763 7.88522 4.91135 7.72894C4.75507 7.57266 4.66728 7.3607 4.66728 7.13969C4.66728 6.91867 4.75507 6.70671 4.91135 6.55043C5.06763 6.39415 5.2796 6.30635 5.50061 6.30635ZM11.3339 12.1397H13.0006L15.5006 14.6397H13.8339L11.3339 12.1397Z" fill="#171E1D"/>
</svg>
