<svg width="21" height="21" viewBox="0 0 21 21" fill="none" xmlns="http://www.w3.org/2000/svg">
<path d="M5.50057 12.1397H7.16724L9.66724 14.6397H8.00057L5.50057 12.1397ZM3.8339 3.80636H4.66724V2.97302C4.66724 2.75201 4.75503 2.54005 4.91131 2.38377C5.06759 2.22749 5.27956 2.13969 5.50057 2.13969H8.8339C9.05492 2.13969 9.26688 2.22749 9.42316 2.38377C9.57944 2.54005 9.66724 2.75201 9.66724 2.97302V3.80636H11.3339V2.97302C11.3339 2.75201 11.4217 2.54005 11.578 2.38377C11.7343 2.22749 11.9462 2.13969 12.1672 2.13969H15.5006C15.7216 2.13969 15.9335 2.22749 16.0898 2.38377C16.2461 2.54005 16.3339 2.75201 16.3339 2.97302V3.80636H17.1672C17.6093 3.80636 18.0332 3.98195 18.3457 4.29451C18.6583 4.60707 18.8339 5.031 18.8339 5.47302V16.3064C18.8339 16.7484 18.6583 17.1723 18.3457 17.4849C18.0332 17.7974 17.6093 17.973 17.1672 17.973V18.8064H14.6672V17.973H6.3339V18.8064H3.8339V17.973C3.39188 17.973 2.96795 17.7974 2.65539 17.4849C2.34283 17.1723 2.16724 16.7484 2.16724 16.3064V5.47302C2.16724 5.031 2.34283 4.60707 2.65539 4.29451C2.96795 3.98195 3.39188 3.80636 3.8339 3.80636ZM15.5006 6.30636C15.7216 6.30636 15.9335 6.39415 16.0898 6.55043C16.2461 6.70672 16.3339 6.91868 16.3339 7.13969C16.3339 7.3607 16.2461 7.57267 16.0898 7.72895C15.9335 7.88523 15.7216 7.97302 15.5006 7.97302C15.2796 7.97302 15.0676 7.88523 14.9113 7.72895C14.755 7.57267 14.6672 7.3607 14.6672 7.13969C14.6672 6.91868 14.755 6.70672 14.9113 6.55043C15.0676 6.39415 15.2796 6.30636 15.5006 6.30636ZM12.1672 6.30636C12.3882 6.30636 12.6002 6.39415 12.7565 6.55043C12.9128 6.70672 13.0006 6.91868 13.0006 7.13969C13.0006 7.3607 12.9128 7.57267 12.7565 7.72895C12.6002 7.88523 12.3882 7.97302 12.1672 7.97302C11.9462 7.97302 11.7343 7.88523 11.578 7.72895C11.4217 7.57267 11.3339 7.3607 11.3339 7.13969C11.3339 6.91868 11.4217 6.70672 11.578 6.55043C11.7343 6.39415 11.9462 6.30636 12.1672 6.30636ZM17.1672 5.47302H3.8339V8.80636H17.1672V5.47302ZM3.8339 16.3064H17.1672V10.473H3.8339V16.3064ZM5.50057 6.30636C5.72158 6.30636 5.93354 6.39415 6.08983 6.55043C6.24611 6.70672 6.3339 6.91868 6.3339 7.13969C6.3339 7.3607 6.24611 7.57267 6.08983 7.72895C5.93354 7.88523 5.72158 7.97302 5.50057 7.97302C5.27956 7.97302 5.06759 7.88523 4.91131 7.72895C4.75503 7.57267 4.66724 7.3607 4.66724 7.13969C4.66724 6.91868 4.75503 6.70672 4.91131 6.55043C5.06759 6.39415 5.27956 6.30636 5.50057 6.30636ZM11.3339 12.1397H13.0006L15.5006 14.6397H13.8339L11.3339 12.1397Z" fill="#171E1D"/>
</svg>
