<svg width="21" height="21" viewBox="0 0 21 21" fill="none" xmlns="http://www.w3.org/2000/svg">
<g clip-path="url(#clip0_1_642)">
<path d="M19.0003 9.22302H18.1566L15.9862 4.34021C15.888 4.11929 15.7278 3.9316 15.5251 3.79987C15.3224 3.66814 15.0858 3.59803 14.8441 3.59802H5.65656C5.41479 3.59803 5.17821 3.66814 4.97549 3.79987C4.77276 3.9316 4.61259 4.11929 4.51437 4.34021L2.34406 9.22302H1.50031C1.33454 9.22302 1.17557 9.28887 1.05836 9.40608C0.941153 9.52329 0.875305 9.68226 0.875305 9.84802C0.875305 10.0138 0.941153 10.1728 1.05836 10.29C1.17557 10.4072 1.33454 10.473 1.50031 10.473H2.12531V16.723C2.12531 17.0545 2.257 17.3725 2.49142 17.6069C2.72584 17.8413 3.04378 17.973 3.37531 17.973H5.25031C5.58183 17.973 5.89977 17.8413 6.13419 17.6069C6.36861 17.3725 6.50031 17.0545 6.50031 16.723V15.473H14.0003V16.723C14.0003 17.0545 14.132 17.3725 14.3664 17.6069C14.6008 17.8413 14.9188 17.973 15.2503 17.973H17.1253C17.4568 17.973 17.7748 17.8413 18.0092 17.6069C18.2436 17.3725 18.3753 17.0545 18.3753 16.723V10.473H19.0003C19.1661 10.473 19.325 10.4072 19.4422 10.29C19.5595 10.1728 19.6253 10.0138 19.6253 9.84802C19.6253 9.68226 19.5595 9.52329 19.4422 9.40608C19.325 9.28887 19.1661 9.22302 19.0003 9.22302ZM5.65656 4.84802H14.8441L16.7886 9.22302H3.71202L5.65656 4.84802ZM5.25031 16.723H3.37531V15.473H5.25031V16.723ZM15.2503 16.723V15.473H17.1253V16.723H15.2503ZM17.1253 14.223H3.37531V10.473H17.1253V14.223ZM4.62531 12.348C4.62531 12.1823 4.69115 12.0233 4.80836 11.9061C4.92557 11.7889 5.08454 11.723 5.25031 11.723H6.50031C6.66607 11.723 6.82504 11.7889 6.94225 11.9061C7.05946 12.0233 7.12531 12.1823 7.12531 12.348C7.12531 12.5138 7.05946 12.6728 6.94225 12.79C6.82504 12.9072 6.66607 12.973 6.50031 12.973H5.25031C5.08454 12.973 4.92557 12.9072 4.80836 12.79C4.69115 12.6728 4.62531 12.5138 4.62531 12.348ZM13.3753 12.348C13.3753 12.1823 13.4412 12.0233 13.5584 11.9061C13.6756 11.7889 13.8345 11.723 14.0003 11.723H15.2503C15.4161 11.723 15.575 11.7889 15.6922 11.9061C15.8095 12.0233 15.8753 12.1823 15.8753 12.348C15.8753 12.5138 15.8095 12.6728 15.6922 12.79C15.575 12.9072 15.4161 12.973 15.2503 12.973H14.0003C13.8345 12.973 13.6756 12.9072 13.5584 12.79C13.4412 12.6728 13.3753 12.5138 13.3753 12.348Z" fill="black"/>
</g>
<defs>
<clipPath id="clip0_1_642">
<rect width="20" height="20" fill="white" transform="translate(0.250305 0.473022)"/>
</clipPath>
</defs>
</svg>
