<svg width="21" height="21" viewBox="0 0 21 21" fill="none" xmlns="http://www.w3.org/2000/svg">
<g clip-path="url(#clip0_19_686)">
<path d="M17.5553 4.24959L12.8147 2.82771L15.1584 1.65584C15.3065 1.58125 15.4188 1.4509 15.4708 1.29347C15.5227 1.13604 15.51 0.964429 15.4354 0.816384C15.3608 0.66834 15.2304 0.55599 15.073 0.504051C14.9156 0.452113 14.744 0.464839 14.5959 0.539431L10.9694 2.35193C9.33951 2.39428 7.79057 3.07121 6.65238 4.23858C5.5142 5.40595 4.87669 6.97153 4.87561 8.60193V16.723C4.87561 16.8888 4.94146 17.0478 5.05867 17.165C5.17588 17.2822 5.33485 17.348 5.50061 17.348C5.66637 17.348 5.82534 17.2822 5.94255 17.165C6.05976 17.0478 6.12561 16.8888 6.12561 16.723V14.223H7.37561V18.598C7.37561 18.9295 7.50731 19.2475 7.74173 19.4819C7.97615 19.7163 8.29409 19.848 8.62561 19.848H13.6256C13.9571 19.848 14.2751 19.7163 14.5095 19.4819C14.7439 19.2475 14.8756 18.9295 14.8756 18.598V8.59803C14.8744 7.71224 14.5601 6.8554 13.9882 6.17892C13.4164 5.50244 12.6238 5.04986 11.7506 4.90115V3.81287L17.1959 5.44646C17.2751 5.47226 17.3587 5.48197 17.4417 5.47501C17.5247 5.46805 17.6055 5.44457 17.6793 5.40595C17.7531 5.36733 17.8184 5.31435 17.8714 5.25012C17.9245 5.18589 17.9641 5.1117 17.9881 5.03193C18.012 4.95215 18.0198 4.86839 18.0109 4.78557C18.002 4.70275 17.9767 4.62254 17.9364 4.54965C17.8961 4.47676 17.8416 4.41267 17.7761 4.36114C17.7107 4.30961 17.6356 4.27169 17.5553 4.24959ZM6.12561 12.973V8.59803C6.12713 7.38076 6.57216 6.20576 7.37744 5.29292C8.18272 4.38008 9.29304 3.79197 10.5006 3.63865V4.90115C9.62739 5.04986 8.83484 5.50244 8.26301 6.17892C7.69117 6.8554 7.37686 7.71224 7.37561 8.59803V12.973H6.12561ZM13.6256 18.598H8.62561V14.223H13.6256V18.598ZM13.6256 8.59803V12.973H8.62561V8.59803C8.62561 7.93498 8.889 7.2991 9.35784 6.83026C9.82668 6.36142 10.4626 6.09803 11.1256 6.09803C11.7887 6.09803 12.4245 6.36142 12.8934 6.83026C13.3622 7.2991 13.6256 7.93498 13.6256 8.59803Z" fill="#171E1D"/>
</g>
<defs>
<clipPath id="clip0_19_686">
<rect width="20" height="20" fill="white" transform="translate(0.50061 0.473022)"/>
</clipPath>
</defs>
</svg>
