<svg width="17" height="17" viewBox="0 0 17 17" fill="none" xmlns="http://www.w3.org/2000/svg">
<path fill-rule="evenodd" clip-rule="evenodd" d="M8.65099 1.38238C8.59501 1.25539 8.50545 1.14785 8.39292 1.07247C8.28038 0.99709 8.14957 0.957031 8.01596 0.957031C7.88236 0.957031 7.75154 0.99709 7.63901 1.07247C7.52647 1.14785 7.43691 1.25539 7.38094 1.38238L5.37375 5.93574L0.61736 6.52651C0.484655 6.54291 0.359217 6.59876 0.255891 6.68746C0.152566 6.77615 0.0756776 6.89397 0.0343273 7.02698C-0.00702307 7.15999 -0.0111048 7.30261 0.0225652 7.43797C0.0562352 7.57333 0.126247 7.69575 0.224316 7.79076L3.74213 11.1948L2.80848 16.1142C2.78254 16.2513 2.79466 16.3934 2.84341 16.5235C2.89215 16.6537 2.97547 16.7665 3.08353 16.8486C3.19158 16.9308 3.31985 16.9789 3.45317 16.9871C3.58649 16.9954 3.71928 16.9635 3.83585 16.8953L8.01596 14.4459L12.1961 16.8953C12.3127 16.9638 12.4457 16.9959 12.5792 16.9877C12.7127 16.9795 12.8412 16.9314 12.9494 16.8491C13.0576 16.7669 13.141 16.6538 13.1897 16.5234C13.2384 16.393 13.2504 16.2508 13.2241 16.1135L12.2905 11.1955L15.8076 7.79076C15.9057 7.69575 15.9757 7.57333 16.0094 7.43797C16.043 7.30261 16.0389 7.15999 15.9976 7.02698C15.9562 6.89397 15.8794 6.77615 15.776 6.68746C15.6727 6.59876 15.5473 6.54291 15.4146 6.52651L10.6575 5.93501L8.65099 1.38238Z" fill="#FAC50A"/>
</svg>
