<svg width="40" height="41" viewBox="0 0 40 41" fill="none" xmlns="http://www.w3.org/2000/svg">
<path d="M8.86484 25.1289L7.4725 30.3267L2.38352 30.4343C0.862656 27.6135 0 24.386 0 20.9564C0 17.6399 0.806563 14.5124 2.23625 11.7585H2.23734L6.76797 12.5892L8.75266 17.0926C8.33727 18.3036 8.11086 19.6036 8.11086 20.9564C8.11102 22.4245 8.37695 23.8311 8.86484 25.1289Z" fill="#FBBB00"/>
<path d="M39.6506 17.2201C39.8802 18.43 40 19.6794 40 20.9564C40 22.3882 39.8495 23.785 39.5627 25.1322C38.5891 29.7168 36.0451 33.7201 32.5209 36.5531L32.5199 36.552L26.8133 36.2608L26.0056 31.219C28.3441 29.8476 30.1716 27.7015 31.1342 25.1322H20.4397V17.2201H31.2902H39.6506Z" fill="#518EF8"/>
<path d="M32.52 36.552L32.5211 36.5531C29.0937 39.308 24.7398 40.9564 20.0003 40.9564C12.3838 40.9564 5.76184 36.6992 2.38379 30.4344L8.86512 25.1289C10.5541 29.6366 14.9025 32.8454 20.0003 32.8454C22.1914 32.8454 24.2443 32.2531 26.0057 31.219L32.52 36.552Z" fill="#28B446"/>
<path d="M32.7663 5.56073L26.2871 10.8651C24.4641 9.72558 22.3091 9.0673 20.0003 9.0673C14.7871 9.0673 10.3574 12.4233 8.75306 17.0926L2.23767 11.7585H2.23657C5.56517 5.34097 12.2706 0.95636 20.0003 0.95636C24.8531 0.95636 29.3025 2.68495 32.7663 5.56073Z" fill="#F14336"/>
</svg>
