<svg width="40" height="41" viewBox="0 0 40 41" fill="none" xmlns="http://www.w3.org/2000/svg">
<path d="M8.86484 25.1288L7.4725 30.3266L2.38352 30.4343C0.862656 27.6134 0 24.386 0 20.9563C0 17.6398 0.806563 14.5123 2.23625 11.7585H2.23734L6.76797 12.5891L8.75266 17.0925C8.33727 18.3036 8.11086 19.6036 8.11086 20.9563C8.11102 22.4244 8.37695 23.8311 8.86484 25.1288Z" fill="#FBBB00"/>
<path d="M39.6506 17.2201C39.8802 18.4299 40 19.6794 40 20.9563C40 22.3882 39.8495 23.7849 39.5627 25.1322C38.5891 29.7168 36.0451 33.7201 32.5209 36.5531L32.5199 36.552L26.8133 36.2608L26.0056 31.219C28.3441 29.8476 30.1716 27.7014 31.1342 25.1322H20.4397V17.2201H31.2902H39.6506Z" fill="#518EF8"/>
<path d="M32.5198 36.552L32.5209 36.553C29.0935 39.308 24.7396 40.9563 20 40.9563C12.3835 40.9563 5.76159 36.6992 2.38354 30.4344L8.86487 25.1289C10.5539 29.6366 14.9022 32.8454 20 32.8454C22.1912 32.8454 24.244 32.253 26.0055 31.219L32.5198 36.552Z" fill="#28B446"/>
<path d="M32.766 5.56073L26.2869 10.8651C24.4638 9.72558 22.3088 9.0673 20.0001 9.0673C14.7869 9.0673 10.3572 12.4233 8.75281 17.0926L2.23742 11.7585H2.23633C5.56492 5.34097 12.2704 0.95636 20.0001 0.95636C24.8528 0.95636 29.3023 2.68495 32.766 5.56073Z" fill="#F14336"/>
</svg>
