<svg width="48" height="48" viewBox="0 0 48 48" fill="none" xmlns="http://www.w3.org/2000/svg">
<circle cx="36.9271" cy="17.396" r="10.575" fill="#FAC50A"/>
<path d="M43.4771 20.9238C41.5296 19.265 38.9978 18.2033 36.2713 18.2033C34.7133 18.2033 33.2202 18.5351 31.792 19.1323L31.3376 19.3313L31.1428 18.8669C30.5586 17.5398 29.7147 16.4118 28.676 15.4165C28.2216 15.0184 27.7671 14.6866 27.3127 14.3549C26.4039 13.7577 25.3652 13.2932 24.3265 13.0278C23.4826 12.8288 22.6387 12.696 21.7299 12.696C16.6014 12.696 12.252 16.4118 11.408 21.5873L11.3431 22.1182L10.8238 22.0518C10.3694 21.9855 9.85002 21.9191 9.33068 21.9191C4.4619 21.9191 0.501953 25.9666 0.501953 30.9431C0.501953 33.7299 1.73538 36.3177 3.87764 38.0429L3.94256 38.1092C5.76024 39.9007 8.09726 40.896 10.629 40.896H36.4011C38.5434 40.896 40.6857 40.2325 42.5033 39.0382C45.6194 36.9149 47.502 33.3982 47.502 29.5497C47.437 26.0993 45.879 23.0471 43.4771 20.9238Z" fill="#F4F4F4"/>
</svg>
