<svg width="41" height="41" viewBox="0 0 41 41" fill="none" xmlns="http://www.w3.org/2000/svg">
<circle cx="31.502" cy="14.946" r="9" fill="#FAC50A"/>
<path d="M37.0765 17.9484C35.4191 16.5366 33.2644 15.6331 30.9439 15.6331C29.618 15.6331 28.3473 15.9155 27.1318 16.4237L26.745 16.5931L26.5793 16.1978C26.0821 15.0684 25.3638 14.1084 24.4799 13.2613C24.0931 12.9225 23.7064 12.6402 23.3196 12.3578C22.5462 11.8496 21.6622 11.4543 20.7782 11.2284C20.06 11.059 19.3417 10.946 18.5682 10.946C14.2036 10.946 10.502 14.1084 9.78372 18.5131L9.72847 18.9649L9.28648 18.9084C8.89974 18.8519 8.45775 18.7955 8.01577 18.7955C3.87212 18.7955 0.501953 22.2402 0.501953 26.4755C0.501953 28.8472 1.55168 31.0496 3.37488 32.5178L3.43013 32.5743C4.97709 34.099 6.96604 34.946 9.12074 34.946H31.0544C32.8776 34.946 34.7009 34.3813 36.2478 33.3649C38.8997 31.5578 40.502 28.5649 40.502 25.2896C40.4467 22.3531 39.1207 19.7555 37.0765 17.9484Z" fill="#F4F4F4"/>
</svg>
