<svg width="13" height="14" viewBox="0 0 13 14" fill="none" xmlns="http://www.w3.org/2000/svg">
<path fill-rule="evenodd" clip-rule="evenodd" d="M7.01493 1.31793C6.96954 1.21496 6.89692 1.12775 6.80567 1.06663C6.71441 1.00551 6.60834 0.973022 6.5 0.973022C6.39166 0.973022 6.28559 1.00551 6.19433 1.06663C6.10308 1.12775 6.03046 1.21496 5.98507 1.31793L4.35748 5.01017L0.500606 5.48921C0.392998 5.50251 0.291283 5.5478 0.207498 5.61972C0.123713 5.69164 0.0613656 5.78718 0.0278354 5.89504C-0.00569488 6.00289 -0.00900466 6.11854 0.0182977 6.2283C0.0456001 6.33806 0.102372 6.43733 0.181894 6.51437L3.03443 9.27465L2.27734 13.2637C2.25631 13.3749 2.26614 13.4901 2.30567 13.5956C2.34519 13.7011 2.41276 13.7926 2.50038 13.8593C2.588 13.9259 2.69201 13.9648 2.80011 13.9715C2.90822 13.9782 3.0159 13.9524 3.11042 13.8971L6.5 11.9109L9.88958 13.8971C9.98416 13.9526 10.092 13.9786 10.2002 13.972C10.3085 13.9654 10.4127 13.9264 10.5004 13.8597C10.5882 13.7929 10.6558 13.7013 10.6953 13.5955C10.7348 13.4898 10.7445 13.3744 10.7232 13.2631L9.96614 9.27525L12.8181 6.51437C12.8976 6.43733 12.9544 6.33806 12.9817 6.2283C13.009 6.11854 13.0057 6.00289 12.9722 5.89504C12.9386 5.78718 12.8763 5.69164 12.7925 5.61972C12.7087 5.5478 12.607 5.50251 12.4994 5.48921L8.64195 5.00958L7.01493 1.31793Z" fill="#FAC50A"/>
</svg>
