<svg width="7" height="11" viewBox="0 0 7 11" fill="none" xmlns="http://www.w3.org/2000/svg">
<path d="M4.97016 3.13808C4.88655 3.57592 4.46382 3.86308 4.02598 3.77947C3.58813 3.69585 3.30097 3.27313 3.38459 2.83528C3.4682 2.39743 3.89093 2.11027 4.32877 2.19389C4.76662 2.27751 5.05378 2.70023 4.97016 3.13808Z" fill="#00C29F"/>
<path d="M1.65038 10.3775C0.36874 9.93017 -0.312355 8.52737 0.139926 7.23156C0.262926 6.87916 0.33941 6.6758 0.457491 6.32172C0.522282 6.12443 1.04826 5.23861 1.4038 4.99682C1.97415 4.60893 2.18871 4.57437 2.74036 4.48144C3.40469 4.36953 4.21574 4.65132 4.80436 4.40074C5.20805 4.22974 5.52305 3.89315 5.66826 3.4771C5.68211 3.43743 5.69371 3.39997 5.70342 3.36259C5.71027 3.33768 5.71612 3.31243 5.72165 3.28705C5.72729 3.26135 5.73228 3.23541 5.73649 3.20958C5.74616 3.14901 5.7524 3.08873 5.75508 3.0302C5.77846 2.51068 5.54419 2.01827 5.12863 1.71354C5.08212 1.67935 5.03182 1.64646 4.9786 1.61667C4.95604 1.60393 4.93292 1.59175 4.90957 1.58023C4.88655 1.56883 4.86341 1.55776 4.83959 1.54758C4.8047 1.53204 4.76857 1.51793 4.72966 1.50435C4.69075 1.49077 4.65336 1.47921 4.61637 1.46967C4.59172 1.46293 4.56672 1.4572 4.5416 1.4518C4.51615 1.44628 4.49047 1.44143 4.46489 1.43737C4.44559 1.43437 4.42618 1.43171 4.40742 1.42928C4.38867 1.42684 4.36968 1.42508 4.35123 1.42388C4.3329 1.42234 4.3149 1.42092 4.29689 1.42061C4.25976 1.41888 4.22549 1.41851 4.19219 1.4196C3.66885 1.43215 3.17488 1.72086 2.90387 2.17303L2.90329 2.1747L2.90238 2.17625C2.8959 2.18633 2.88849 2.19908 2.88073 2.21283C2.86795 2.23567 2.85572 2.25907 2.84414 2.28271C2.83268 2.30601 2.82154 2.32942 2.81129 2.35351C2.8076 2.36195 2.80403 2.37006 2.80068 2.37861C2.67481 2.52728 2.46804 2.58451 2.2857 2.52086C2.06577 2.4441 1.93663 2.22064 1.97812 1.98941C2.01191 1.90958 2.05066 1.83036 2.09266 1.75451L2.09584 1.74964C2.68503 0.695338 3.93199 0.216183 5.05965 0.609774C5.67821 0.825674 6.17553 1.2745 6.46038 1.87319C6.74555 2.47199 6.78218 3.14598 6.56389 3.77138L4.79526 8.8386C4.34298 10.1344 2.93203 10.8248 1.65038 10.3775Z" fill="#00C29F"/>
</svg>
