<svg width="36" height="29" viewBox="0 0 36 29" fill="none" xmlns="http://www.w3.org/2000/svg">
<path d="M21.3209 3.90988C21.3209 3.44296 21.1354 2.99516 20.8052 2.665C20.475 2.33484 20.0273 2.14935 19.5603 2.14935H16.0393C15.5724 2.14935 15.1246 2.33484 14.7944 2.665C14.4642 2.99516 14.2788 3.44296 14.2788 3.90988V14.473C14.2788 14.9399 14.4642 15.3877 14.7944 15.7179C15.1246 16.0481 15.5724 16.2336 16.0393 16.2336H19.5603C20.0273 16.2336 20.475 16.0481 20.8052 15.7179C21.1354 15.3877 21.3209 14.9399 21.3209 14.473V10.952C21.3209 10.4851 21.1354 10.0373 20.8052 9.7071C20.475 9.37694 20.0273 9.19145 19.5603 9.19145H14.2788M1.95508 2.14935H6.35639C7.05677 2.14935 7.72847 2.42758 8.22371 2.92282C8.71895 3.41807 8.99718 4.08976 8.99718 4.79014V6.55067C8.99718 7.25105 8.71895 7.92274 8.22371 8.41798C7.72847 8.91323 7.05677 9.19145 6.35639 9.19145M6.35639 9.19145H3.7156M6.35639 9.19145C7.05677 9.19145 7.72847 9.46968 8.22371 9.96492C8.71895 10.4602 8.99718 11.1319 8.99718 11.8322V13.5928C8.99718 14.2931 8.71895 14.9648 8.22371 15.4601C7.72847 15.9553 7.05677 16.2336 6.35639 16.2336H1.95508M1.95508 21.5151C1.95508 24.4323 9.05 26.7967 17.7998 26.7967C26.5496 26.7967 33.6445 24.4323 33.6445 21.5151M26.6024 5.6704V12.7125C26.6024 13.6463 26.9734 14.5419 27.6337 15.2023C28.294 15.8626 29.1896 16.2336 30.1235 16.2336C31.0573 16.2336 31.9529 15.8626 32.6132 15.2023C33.2736 14.5419 33.6445 13.6463 33.6445 12.7125V5.6704C33.6445 4.73656 33.2736 3.84097 32.6132 3.18064C31.9529 2.52032 31.0573 2.14935 30.1235 2.14935C29.1896 2.14935 28.294 2.52032 27.6337 3.18064C26.9734 3.84097 26.6024 4.73656 26.6024 5.6704Z" stroke="white" stroke-width="3.52105" stroke-linecap="round" stroke-linejoin="round"/>
</svg>
