<svg width="13" height="19" viewBox="0 0 13 19" fill="none" xmlns="http://www.w3.org/2000/svg">
<path d="M9.82925 5.16722C9.67639 5.96766 8.90359 6.49263 8.10316 6.33977C7.30272 6.18691 6.77776 5.41411 6.93062 4.61367C7.08348 3.81324 7.85627 3.28827 8.65671 3.44113C9.45715 3.59399 9.98211 4.36679 9.82925 5.16722Z" fill="#00C29F"/>
<path d="M3.76027 18.4018C1.41727 17.584 0.17214 15.0195 0.998966 12.6506C1.22383 12.0064 1.36365 11.6346 1.57951 10.9873C1.69796 10.6267 2.65952 9.00727 3.30949 8.56524C4.35217 7.85613 4.74441 7.79294 5.75289 7.62306C6.96736 7.41847 8.45006 7.93362 9.52614 7.47552C10.2641 7.16291 10.84 6.54759 11.1055 5.787C11.1308 5.71448 11.152 5.64599 11.1697 5.57767C11.1823 5.53213 11.193 5.48595 11.2031 5.43957C11.2134 5.39258 11.2225 5.34517 11.2302 5.29794C11.2479 5.1872 11.2593 5.07701 11.2642 4.97001C11.3069 4.02025 10.8786 3.12008 10.1189 2.56298C10.0339 2.50049 9.94197 2.44037 9.84468 2.3859C9.80344 2.36262 9.76117 2.34034 9.71848 2.31929C9.67639 2.29845 9.63409 2.27821 9.59055 2.2596C9.52676 2.23118 9.4607 2.20539 9.38958 2.18056C9.31845 2.15573 9.25009 2.13461 9.18247 2.11716C9.1374 2.10485 9.0917 2.09437 9.04578 2.08449C8.99926 2.07441 8.95231 2.06554 8.90555 2.05811C8.87027 2.05263 8.83477 2.04776 8.80049 2.04332C8.7662 2.03887 8.73149 2.03564 8.69777 2.03344C8.66426 2.03064 8.63135 2.02804 8.59841 2.02748C8.53055 2.02431 8.4679 2.02363 8.40702 2.02563C7.45028 2.04858 6.54725 2.57638 6.05181 3.403L6.05074 3.40605L6.04908 3.40889C6.03723 3.42731 6.02369 3.45062 6.00951 3.47575C5.98614 3.51751 5.96377 3.56029 5.94261 3.6035C5.92165 3.64609 5.9013 3.6889 5.88255 3.73294C5.87581 3.74837 5.86929 3.76318 5.86316 3.77882C5.63305 4.0506 5.25505 4.15522 4.92171 4.03888C4.51966 3.89855 4.28357 3.49003 4.35942 3.06732C4.42118 2.92137 4.49202 2.77654 4.56882 2.63789L4.57463 2.62898C5.65173 0.701588 7.93134 -0.174369 9.99284 0.545166C11.1237 0.939858 12.0328 1.76038 12.5535 2.85485C13.0749 3.94954 13.1418 5.18167 12.7428 6.32498L9.50951 15.5885C8.68269 17.9574 6.10328 19.2196 3.76027 18.4018Z" fill="#00C29F"/>
</svg>
