<svg width="11" height="12" viewBox="0 0 11 12" fill="none" xmlns="http://www.w3.org/2000/svg">
<path fill-rule="evenodd" clip-rule="evenodd" d="M8.67923 2.33674C7.80826 1.46578 6.62697 0.976471 5.39524 0.976471C4.1635 0.976471 2.98222 1.46578 2.11125 2.33674C1.24028 3.20771 0.750977 4.389 0.750977 5.62073C0.750977 6.85247 1.24028 8.03375 2.11125 8.90472L5.02118 11.8147C5.1204 11.9138 5.25495 11.9696 5.39524 11.9696C5.53553 11.9696 5.67008 11.9138 5.7693 11.8147L8.67923 8.90472C9.11049 8.47346 9.45259 7.96148 9.68598 7.39802C9.91938 6.83455 10.0395 6.23063 10.0395 5.62073C10.0395 5.01084 9.91938 4.40692 9.68598 3.84345C9.45259 3.27998 9.11049 2.768 8.67923 2.33674ZM4.60162 5.62073C4.60162 5.41025 4.68523 5.20839 4.83407 5.05956C4.9829 4.91073 5.18476 4.82712 5.39524 4.82712H5.40053C5.61101 4.82712 5.81287 4.91073 5.9617 5.05956C6.11053 5.20839 6.19415 5.41025 6.19415 5.62073V5.62602C6.19415 5.8365 6.11053 6.03836 5.9617 6.1872C5.81287 6.33603 5.61101 6.41964 5.40053 6.41964H5.39524C5.18476 6.41964 4.9829 6.33603 4.83407 6.1872C4.68523 6.03836 4.60162 5.8365 4.60162 5.62602V5.62073Z" fill="#787878"/>
</svg>
