<svg width="17" height="17" viewBox="0 0 17 17" fill="none" xmlns="http://www.w3.org/2000/svg">
<path fill-rule="evenodd" clip-rule="evenodd" d="M8.95238 0.882406C8.8964 0.755422 8.80685 0.647878 8.69431 0.5725C8.58177 0.497121 8.45096 0.457062 8.31735 0.457062C8.18375 0.457062 8.05294 0.497121 7.9404 0.5725C7.82786 0.647878 7.73831 0.755422 7.68233 0.882406L5.67515 5.43577L0.918751 6.02654C0.786047 6.04294 0.660609 6.09879 0.557283 6.18749C0.453957 6.27618 0.377069 6.394 0.335719 6.52701C0.294369 6.66002 0.290287 6.80264 0.323957 6.938C0.357627 7.07336 0.427639 7.19578 0.525707 7.29079L4.04352 10.6948L3.10987 15.6142C3.08394 15.7514 3.09606 15.8934 3.1448 16.0236C3.19354 16.1537 3.27686 16.2665 3.38492 16.3487C3.49297 16.4308 3.62124 16.4789 3.75456 16.4871C3.88788 16.4954 4.02067 16.4636 4.13724 16.3953L8.31735 13.9459L12.4975 16.3953C12.6141 16.4638 12.7471 16.4959 12.8806 16.4877C13.0141 16.4796 13.1426 16.4315 13.2508 16.3492C13.359 16.2669 13.4424 16.1538 13.4911 16.0235C13.5398 15.8931 13.5517 15.7508 13.5255 15.6135L12.5919 10.6956L16.109 7.29079C16.2071 7.19578 16.2771 7.07336 16.3107 6.938C16.3444 6.80264 16.3403 6.66002 16.299 6.52701C16.2576 6.394 16.1807 6.27618 16.0774 6.18749C15.9741 6.09879 15.8487 6.04294 15.716 6.02654L10.9589 5.43504L8.95238 0.882406Z" fill="#FAC50A"/>
</svg>
